<svg width="67" height="11" viewBox="0 0 67 11" fill="none" xmlns="http://www.w3.org/2000/svg">
<path d="M3.432 6.828L2.856 8.292C2.776 8.516 2.704 8.748 2.64 8.988C2.576 9.228 2.508 9.436 2.436 9.612C2.364 9.796 2.252 9.94 2.1 10.044C1.956 10.148 1.792 10.224 1.608 10.272C1.424 10.328 1.232 10.352 1.032 10.344C0.839999 10.336 0.667999 10.3 0.515999 10.236C0.171999 10.076 0.0519992 9.812 0.155999 9.444C0.523999 7.828 0.867999 6.532 1.188 5.556C1.516 4.58 1.784 3.812 1.992 3.252C2.208 2.692 2.432 2.1 2.664 1.476C2.688 1.244 2.784 1.036 2.952 0.852C3.12 0.668 3.316 0.516 3.54 0.396C3.772 0.276 4.012 0.192 4.26 0.144C4.508 0.0879996 4.728 0.0799997 4.92 0.12C5.112 0.16 5.252 0.248 5.34 0.384C5.436 0.52 5.444 0.716 5.364 0.972C5.076 1.708 4.872 2.228 4.752 2.532C4.632 2.836 4.524 3.108 4.428 3.348L4.092 4.14C4.26 4.148 4.472 4.124 4.728 4.068C5.192 3.964 5.528 3.928 5.736 3.96C5.736 3.92 5.756 3.852 5.796 3.756C6.02 2.78 6.272 1.884 6.552 1.068C6.752 0.396 7.268 0.0439997 8.1 0.0120001C8.428 0.0120001 8.676 0.092 8.844 0.252C9.028 0.42 9.052 0.648 8.916 0.936C8.18 3 7.66 4.628 7.356 5.82C7.012 7.196 6.784 8.124 6.672 8.604C6.568 9.084 6.476 9.368 6.396 9.456C6.316 9.544 6.232 9.604 6.144 9.636C6.064 9.676 5.984 9.712 5.904 9.744C5.824 9.776 5.76 9.856 5.712 9.984H5.676C5.612 10.128 5.472 10.24 5.256 10.32C5.04 10.4 4.82 10.428 4.596 10.404C4.38 10.388 4.196 10.308 4.044 10.164C3.9 10.028 3.864 9.816 3.936 9.528C4.016 9.072 4.148 8.584 4.332 8.064C4.516 7.536 4.66 7.124 4.764 6.828C4.876 6.532 4.968 6.256 5.04 6C4.976 6.032 4.912 6.056 4.848 6.072C4.792 6.088 4.72 6.12 4.632 6.168C4.544 6.208 4.452 6.244 4.356 6.276C4.268 6.308 4.18 6.34 4.092 6.372C3.868 6.46 3.684 6.548 3.54 6.636L3.432 6.828ZM4.788 6.024C4.796 6.024 4.836 6.012 4.908 5.988C4.86 6.004 4.82 6.016 4.788 6.024ZM10.0547 1.5C10.5587 0.924 11.1187 0.564 11.7347 0.42C12.1587 0.316 12.5587 0.332 12.9347 0.468C13.2307 0.156 13.6147 0.0439997 14.0867 0.132C14.5187 0.212 14.8867 0.456 15.1907 0.864C15.2067 0.92 15.2387 1.004 15.2867 1.116C15.3427 1.228 15.3947 1.352 15.4427 1.488C15.7947 2.304 15.8227 3.376 15.5267 4.704C15.1587 6.352 14.5067 7.748 13.5707 8.892C13.2827 9.244 12.9587 9.536 12.5987 9.768C12.0227 10.208 11.3347 10.404 10.5347 10.356C10.0387 10.332 9.62269 10.208 9.28669 9.984C7.95069 9.32 7.51469 7.936 7.97869 5.832C8.36269 4.104 9.05469 2.66 10.0547 1.5ZM10.1987 7.872L10.1867 7.944L10.2107 8.076C10.2587 8.324 10.3387 8.516 10.4507 8.652C10.5627 8.78 10.6547 8.86 10.7267 8.892C10.8067 8.828 10.8867 8.768 10.9667 8.712C11.0467 8.656 11.1187 8.588 11.1827 8.508C11.7267 7.836 12.1507 6.956 12.4547 5.868C12.7587 4.78 12.8707 3.772 12.7907 2.844C12.4787 3.244 12.1507 3.704 11.8067 4.224C11.4627 4.744 11.1907 5.188 10.9907 5.556C10.5347 6.412 10.2707 7.184 10.1987 7.872ZM21.1387 4.38C21.9547 1.924 22.4987 0.696 22.7707 0.696C22.8027 0.696 22.8387 0.7 22.8787 0.708C23.0067 0.716 23.1507 0.664 23.3107 0.552C23.5187 0.376 23.7587 0.24 24.0307 0.144C24.3107 0.0479996 24.5827 0.0119996 24.8467 0.0359998C25.4627 0.092 25.8507 0.416 26.0107 1.008V1.044C25.9707 1.156 25.9307 1.248 25.8907 1.32H25.9388C25.7387 1.568 25.5467 1.892 25.3627 2.292C25.1787 2.684 25.0387 2.992 24.9427 3.216C24.8467 3.432 24.7107 3.708 24.5347 4.044C24.3587 4.38 24.1547 4.792 23.9227 5.28C23.6987 5.768 23.4627 6.252 23.2147 6.732C22.6227 7.884 22.0347 8.788 21.4507 9.444C21.1547 9.804 20.7547 9.98 20.2507 9.972C20.0347 9.964 19.8267 9.908 19.6267 9.804C19.4267 9.7 19.2707 9.54 19.1587 9.324L18.9067 8.568C18.8027 8.656 18.6827 8.768 18.5467 8.904C18.4107 9.04 18.2667 9.18 18.1147 9.324C17.7627 9.66 17.4907 9.836 17.2987 9.852C17.1067 9.868 16.9427 9.868 16.8067 9.852C16.6707 9.844 16.5427 9.816 16.4227 9.768C16.1507 9.664 15.9747 9.464 15.8947 9.168C15.7587 7.8 15.8267 6.052 16.0987 3.924C16.1707 3.404 16.2347 2.892 16.2907 2.388C16.4267 1.676 16.6827 1.164 17.0587 0.852C17.3787 0.58 17.6907 0.5 17.9947 0.612C18.1307 0.66 18.2347 0.74 18.3067 0.852C18.3787 0.964 18.4027 1.1 18.3787 1.26C18.3947 1.748 18.3907 2.112 18.3667 2.352C18.3347 2.76 18.3227 3.06 18.3307 3.252C18.3387 3.444 18.3347 3.604 18.3187 3.732C18.3107 3.852 18.3027 3.968 18.2947 4.08C18.2947 4.184 18.2987 4.272 18.3067 4.344C18.3227 4.408 18.3547 4.42 18.4027 4.38C18.5867 3.988 18.7427 3.704 18.8707 3.528C18.9987 3.352 19.1347 3.168 19.2787 2.976C19.5027 2.776 19.6987 2.7 19.8667 2.748C19.9547 2.764 20.0467 2.796 20.1427 2.844C20.2387 2.884 20.3667 2.92 20.5267 2.952C20.6307 3.04 20.6987 3.136 20.7307 3.24C20.7547 3.264 20.7787 3.288 20.8027 3.312C20.8267 3.328 20.8427 3.352 20.8507 3.384C20.8667 3.408 20.8867 3.468 20.9107 3.564C20.9427 3.66 20.9747 3.764 21.0067 3.876C21.0387 3.98 21.0667 4.084 21.0907 4.188C21.1147 4.284 21.1307 4.348 21.1387 4.38ZM21.4267 9.408C21.4267 9.424 21.4267 9.428 21.4267 9.42C21.4347 9.404 21.4387 9.388 21.4387 9.372L21.4267 9.408ZM33.3783 1.332C33.0983 2.204 32.8383 2.992 32.5983 3.696C32.3663 4.4 32.1503 5.048 31.9503 5.64C31.7583 6.232 31.5783 6.78 31.4103 7.284C31.2423 7.78 31.0863 8.256 30.9423 8.712C30.8623 9.24 30.6023 9.612 30.1623 9.828C29.9063 9.948 29.6023 10.008 29.2503 10.008C28.8983 10.008 28.6343 9.968 28.4583 9.888C28.2823 9.816 28.1703 9.708 28.1223 9.564C28.0663 9.42 28.0663 9.248 28.1223 9.048C28.1703 8.84 28.2583 8.56 28.3863 8.208C28.5143 7.848 28.6743 7.364 28.8663 6.756C29.0663 6.148 29.2743 5.532 29.4903 4.908C30.0263 3.348 30.4503 2.268 30.7623 1.668C30.8823 1.444 31.0023 1.296 31.1223 1.224C31.2423 1.144 31.3583 1.088 31.4703 1.056C31.5823 1.016 31.6863 0.972 31.7823 0.924C31.8783 0.876 31.9623 0.756 32.0343 0.564C32.1143 0.372 32.2543 0.24 32.4543 0.168C32.6623 0.0959995 32.8543 0.0919995 33.0303 0.156C33.2143 0.212 33.3503 0.34 33.4383 0.54C33.5343 0.732 33.5143 0.996 33.3783 1.332ZM43.9108 4.572C43.8788 4.916 43.8148 5.268 43.7188 5.628C43.6308 5.988 43.4988 6.34 43.3228 6.684C43.1548 7.028 42.9508 7.36 42.7108 7.68C42.4788 8 42.2188 8.296 41.9308 8.568C41.6428 8.84 41.3348 9.068 41.0068 9.252C40.3028 9.668 39.6228 9.816 38.9668 9.696C38.8228 10.008 38.6068 10.204 38.3188 10.284C38.0388 10.372 37.7588 10.372 37.4788 10.284C37.2068 10.204 36.9668 10.048 36.7588 9.816C36.5508 9.584 36.4468 9.268 36.4468 8.868C36.4468 8.46 36.4748 8.044 36.5308 7.62C36.5868 7.196 36.6628 6.788 36.7588 6.396C36.9108 5.748 37.0988 5.14 37.3228 4.572C37.8508 3.284 38.1508 2.38 38.2228 1.86C38.3268 1.164 38.5188 0.732 38.7988 0.564C39.2628 0.292 39.7028 0.176 40.1188 0.216C40.5348 0.256 40.9108 0.356 41.2468 0.516C41.7988 0.78 42.3948 1.224 43.0348 1.848C43.7388 2.528 44.0308 3.436 43.9108 4.572ZM39.1948 8.172C39.6028 7.964 39.9308 7.752 40.1788 7.536C40.4348 7.312 40.6748 7.108 40.8988 6.924C41.2428 6.58 41.4948 6.172 41.6548 5.7C42.0068 4.66 41.7828 3.872 40.9828 3.336C40.8628 3.248 40.6828 3.128 40.4428 2.976C40.3308 3.232 40.2468 3.5 40.1908 3.78C40.1428 4.06 40.0748 4.332 39.9868 4.596L39.6628 5.652L39.3988 6.792C39.3828 6.952 39.3588 7.108 39.3268 7.26C39.2948 7.404 39.2668 7.556 39.2428 7.716L39.1948 8.172ZM46.0078 1.5C46.5118 0.924 47.0718 0.564 47.6878 0.42C48.1118 0.316 48.5118 0.332 48.8878 0.468C49.1838 0.156 49.5678 0.0439997 50.0398 0.132C50.4718 0.212 50.8398 0.456 51.1438 0.864C51.1598 0.92 51.1918 1.004 51.2398 1.116C51.2958 1.228 51.3478 1.352 51.3958 1.488C51.7478 2.304 51.7758 3.376 51.4798 4.704C51.1118 6.352 50.4598 7.748 49.5238 8.892C49.2358 9.244 48.9118 9.536 48.5518 9.768C47.9758 10.208 47.2878 10.404 46.4878 10.356C45.9918 10.332 45.5758 10.208 45.2398 9.984C43.9038 9.32 43.4678 7.936 43.9318 5.832C44.3158 4.104 45.0078 2.66 46.0078 1.5ZM46.1518 7.872L46.1398 7.944L46.1638 8.076C46.2118 8.324 46.2918 8.516 46.4038 8.652C46.5158 8.78 46.6078 8.86 46.6798 8.892C46.7598 8.828 46.8398 8.768 46.9198 8.712C46.9998 8.656 47.0718 8.588 47.1358 8.508C47.6798 7.836 48.1038 6.956 48.4078 5.868C48.7118 4.78 48.8238 3.772 48.7438 2.844C48.4318 3.244 48.1038 3.704 47.7598 4.224C47.4158 4.744 47.1438 5.188 46.9438 5.556C46.4878 6.412 46.2238 7.184 46.1518 7.872ZM60.0502 1.332C59.7702 2.204 59.5102 2.992 59.2702 3.696C59.0382 4.4 58.8222 5.048 58.6222 5.64C58.4302 6.232 58.2502 6.78 58.0822 7.284C57.9142 7.78 57.7582 8.256 57.6142 8.712C57.5342 9.24 57.2742 9.612 56.8342 9.828C56.5782 9.948 56.2742 10.008 55.9222 10.008C55.5702 10.008 55.3062 9.968 55.1302 9.888C54.9542 9.816 54.8422 9.708 54.7942 9.564C54.7382 9.42 54.7382 9.248 54.7942 9.048C54.8422 8.84 54.9302 8.56 55.0582 8.208C55.1862 7.848 55.3462 7.364 55.5382 6.756C55.7382 6.148 55.9462 5.532 56.1622 4.908C56.6982 3.348 57.1222 2.268 57.4342 1.668C57.5542 1.444 57.6742 1.296 57.7942 1.224C57.9142 1.144 58.0302 1.088 58.1422 1.056C58.2542 1.016 58.3582 0.972 58.4542 0.924C58.5502 0.876 58.6342 0.756 58.7062 0.564C58.7862 0.372 58.9262 0.24 59.1262 0.168C59.3342 0.0959995 59.5262 0.0919995 59.7022 0.156C59.8862 0.212 60.0222 0.34 60.1102 0.54C60.2062 0.732 60.1862 0.996 60.0502 1.332ZM63.5564 6.372C63.3404 6.996 63.1204 7.596 62.8964 8.172C62.6724 8.748 62.4844 9.184 62.3324 9.48C62.1884 9.784 62.0604 9.992 61.9484 10.104C61.8364 10.216 61.7204 10.292 61.6004 10.332C61.4884 10.372 61.3724 10.388 61.2524 10.38C61.1404 10.372 61.0244 10.364 60.9044 10.356C60.2324 10.252 60.0244 9.768 60.2804 8.904C60.4484 8.216 60.5844 7.656 60.6884 7.224C60.7924 6.784 60.8764 6.424 60.9404 6.144C61.0124 5.856 61.0724 5.62 61.1204 5.436C61.1684 5.244 61.2204 5.056 61.2764 4.872C61.3324 4.688 61.4004 4.48 61.4804 4.248C61.5684 4.016 61.6804 3.708 61.8164 3.324C61.5124 3.364 61.2404 3.332 61.0004 3.228C60.6484 3.076 60.5044 2.748 60.5684 2.244C60.6004 2.012 60.7244 1.796 60.9404 1.596C61.0524 1.492 61.1844 1.38 61.3364 1.26C61.6484 1.012 62.2684 0.748 63.1964 0.468C64.1564 0.18 64.9804 0.0439997 65.6684 0.0599995C65.8524 0.0279999 66.0404 0.052 66.2324 0.132C66.4324 0.204 66.5924 0.304 66.7124 0.432C66.8324 0.56 66.8924 0.7 66.8924 0.852C66.9004 1.004 66.8044 1.14 66.6044 1.26C66.5084 1.324 66.4404 1.432 66.4004 1.584C66.3604 1.728 66.3164 1.884 66.2684 2.052C66.2204 2.212 66.1484 2.36 66.0524 2.496C65.9644 2.632 65.8204 2.712 65.6204 2.736C65.5164 2.792 65.3684 2.832 65.1764 2.856C64.9924 2.88 64.8684 2.9 64.8044 2.916C64.7484 2.924 64.7164 2.944 64.7084 2.976C64.5644 3.4 64.3924 3.916 64.1924 4.524C63.9924 5.124 63.7804 5.74 63.5564 6.372ZM61.9364 3.192C61.9204 3.192 61.9124 3.196 61.9124 3.204C61.9124 3.204 61.9204 3.204 61.9364 3.204V3.192Z" fill="#D9FF00"/>
</svg>
